inDegrees=no
num_controls=7
num_derivatives=13
num_iterations=112
num_multipliers=7
num_parameters=0
num_slacks=7
num_states=26
objective=5.577110
objective_accelerations=0.878630
objective_balance=0.023610
objective_effort=0.199479
objective_height=4.425239
objective_ligament=0.050153
solver_duration=1229.619751
status=Solve_Succeeded
success=true
DataType=double
version=3
OpenSimVersion=4.4-2022-07-23-0e9fedc
endheader
time	/jointset/ground_pelvis/pelvis_tilt/value	/jointset/ground_pelvis/pelvis_tx/value	/jointset/ground_pelvis/pelvis_ty/value	/jointset/hip_l/hip_flexion_l/value	/jointset/hip_l/hip_adduction_l/value	/jointset/hip_l/hip_rotation_l/value	/jointset/back/lumbar_extension/value	/jointset/patellofemoral_l/patellar_flexion_l/value	/jointset/knee_l/knee_flexion_l/value	/jointset/knee_l/knee_adduction_l/value	/jointset/knee_l/knee_rotation_l/value	/jointset/ankle_l/ankle_angle_l/value	/jointset/subtalar_l/subtalar_angle_l/value	/jointset/ground_pelvis/pelvis_tilt/speed	/jointset/ground_pelvis/pelvis_tx/speed	/jointset/ground_pelvis/pelvis_ty/speed	/jointset/hip_l/hip_flexion_l/speed	/jointset/hip_l/hip_adduction_l/speed	/jointset/hip_l/hip_rotation_l/speed	/jointset/back/lumbar_extension/speed	/jointset/patellofemoral_l/patellar_flexion_l/speed	/jointset/knee_l/knee_flexion_l/speed	/jointset/knee_l/knee_adduction_l/speed	/jointset/knee_l/knee_rotation_l/speed	/jointset/ankle_l/ankle_angle_l/speed	/jointset/subtalar_l/subtalar_angle_l/speed	/forceset/tau_hip_flexion_l	/forceset/tau_hip_adduction_l	/forceset/tau_hip_rotation_l	/forceset/tau_knee_flexion_l	/forceset/tau_ankle_angle_l	/forceset/tau_subtalar_angle_l	/forceset/tau_lumbar_extension	lambda_cid13_p0	lambda_cid13_p1	lambda_cid13_p2	lambda_cid13_p3	lambda_cid13_p4	lambda_cid13_p5	lambda_cid14_p0	/jointset/ground_pelvis/pelvis_tilt/accel	/jointset/ground_pelvis/pelvis_tx/accel	/jointset/ground_pelvis/pelvis_ty/accel	/jointset/hip_l/hip_flexion_l/accel	/jointset/hip_l/hip_adduction_l/accel	/jointset/hip_l/hip_rotation_l/accel	/jointset/back/lumbar_extension/accel	/jointset/patellofemoral_l/patellar_flexion_l/accel	/jointset/knee_l/knee_flexion_l/accel	/jointset/knee_l/knee_adduction_l/accel	/jointset/knee_l/knee_rotation_l/accel	/jointset/ankle_l/ankle_angle_l/accel	/jointset/subtalar_l/subtalar_angle_l/accel	gamma_cid13_p0	gamma_cid13_p1	gamma_cid13_p2	gamma_cid13_p3	gamma_cid13_p4	gamma_cid13_p5	gamma_cid14_p0
1.5	-0.3927555813156226	0.03838280272444157	0.7713412504292513	1.122189022474519	-0.3553954427290405	-0.0329494956277142	-0.3389279146507218	0.8847570721117952	0.8847570721118729	-0.02171119585769097	-0.1709716723427784	0.2795620622246599	0.1602459471449239	0.6016980154026792	0.2876218975773085	0.584199764538913	-2.612485925820674	-0.02725011644195118	-0.5865165607209991	0.6087100366309831	-2.381495801181821	-2.381495801181815	-0.3922081963105004	0.0501856177271742	-0.5601659640447832	-0.2609814854563827	-0.1472985602209859	0.02628694260175777	-0.002857822567784038	-0.1330864341149661	-0.03193463664836176	0.0244044053483264	0.1353967583979022	-32.13776943701327	-6.759042520996635	2.838092347172557	-6.557691067773121	-425.3363808755014	-65.82421701736573	-7.390552276921398	0.7366059591397329	0.7623373521214083	-0.8733260284967491	-1.509574555610998	0.2946615282626794	-0.6734194467884126	1.788669359978048	-1.282138393558841	-1.282138393558916	0.02054459317370928	0.3984253718147217	-0.5841819623304824	0.4491316295761926	7.779864169472261e-07	-1.68898968282336e-06	-1.158799366483493e-05	-8.405269111190082e-07	2.238738332560905e-06	1.262025382810377e-06	1.161761874943922e-06
1.51	-0.3867018867023241	0.04129674076070636	0.7771384184537143	1.095990229893046	-0.3556568837485217	-0.03883748085754476	-0.3327535586554148	0.8608799580754345	0.8608799580755609	-0.02564651317624823	-0.1704478244294966	0.2739306590165154	0.1576532644888991	0.608922392920209	0.2951156382886536	0.5750994779629998	-2.626899858457709	-0.02503854909475287	-0.5910081054501801	0.6260591897535055	-2.393600383203831	-2.393600383203811	-0.3948406763334191	0.05462430314683155	-0.5660223466276106	-0.2575235092513265	-0.1420481863422142	0.02618188915492175	-0.001856948337560427	-0.1298592868167334	-0.03143851526680928	0.02281736210548079	0.1311011834806808	-31.90512630065129	-6.190681702537395	2.839035967342911	-6.221475654853012	-421.3650428280176	-64.68053450746606	-8.362672478049172	0.6976235153753557	0.7352466297591775	-0.9480686453710236	-1.351295283634852	0.1861266462593664	-0.3248441597735148	1.692742387056666	-1.125863719595974	-1.125863719594095	-0.4033467807131869	0.4705077648955691	-0.572549930868628	0.3003211147827045	7.799807208110415e-07	-1.035665219433127e-06	-1.14095079201556e-05	-7.315846369644188e-07	2.297932795200328e-06	1.901951444405264e-06	1.18384823355385e-06
1.52	-0.3805794943403743	0.0442840870439079	0.7828406458777725	1.069658499452043	-0.3558958646328658	-0.04476794596933473	-0.3264087703091487	0.8368915490962905	0.8368915490963098	-0.02960779579175155	-0.1698788061342938	0.2682434552776312	0.1550963996946901	0.6154375651303046	0.3023035469646609	0.5652116444578912	-2.63907349773019	-0.02275808941524165	-0.5950125371309318	0.6427965068227167	-2.403754789748795	-2.403754789748762	-0.3974012555838108	0.05921969408066133	-0.5713260701948221	-0.253817913093754	-0.1367978124633017	0.02607683570866025	-0.0008560741098615549	-0.1266321395184132	-0.03094239388506517	0.02123031886350503	0.1268056085634921	-31.66137278797215	-5.632069354952517	2.850454323438485	-5.967675361984666	-417.2706310634616	-63.70029311405971	-9.360184493817782	0.5947648976533575	0.7011709450537359	-1.030835414335858	-1.061515882699633	0.3084399947255322	-0.5759968371022993	1.666302149315931	-0.8921032981496492	-0.8921032981496851	0.03492474767906407	0.4297664746492637	-0.4736501592074129	0.4986556200793922	7.65597025496045e-07	-5.831730950337639e-07	-1.104464910068407e-05	-6.449542229960502e-07	2.324047328141541e-06	2.37553002381456e-06	1.166216251125731e-06
1.53	-0.3743954385612992	0.04734176392217459	0.7884401495694193	1.043216169599406	-0.3561114478674076	-0.05073720853081515	-0.3198999666469233	0.8128115110009971	0.8128115110011421	-0.03359268549271228	-0.169263031280789	0.2625062709737869	0.1525783305106809	0.6212478209053962	0.3091779418968995	0.5545624362790083	-2.648998123616165	-0.0203555675406763	-0.598744275387407	0.6588446019168388	-2.41189242965714	-2.411892429657067	-0.3995541111566829	0.06398823428367259	-0.5759935302135297	-0.2497550839763768	-0.1314321496160242	0.02403380760303086	0.0003630364682110654	-0.1239993032302811	-0.03044242747431762	0.02054803663916921	0.1224215958951752	-31.35823987322694	-5.536167995146556	3.003456279069653	-5.746856204019324	-413.4897362093008	-63.91033416589941	-10.35517395395016	0.5553317863032888	0.6723810793785981	-1.100500122836947	-0.898693394091817	0.2081985112678182	-0.2561754550937509	1.556119633886803	-0.7207492614201363	-0.7207492614140937	-0.3373670990891653	0.5064476337567523	-0.4457263714111698	0.3674705105262905	7.33811706053561e-07	-3.440653308121991e-07	-1.048176888924583e-05	-5.820301604755413e-07	2.315014435778405e-06	2.67236440340167e-06	1.106383531344688e-06
1.54	-0.3681570450506859	0.0504665462121775	0.7939294538586432	1.016686441997412	-0.3563025978377	-0.05674067110186402	-0.3132342707448723	0.7886608655218925	0.78866086552188	-0.03759849902792734	-0.1685983610568723	0.2567259255801194	0.1501023644084405	0.6263051114350838	0.3157246293119049	0.5431717639732812	-2.656553047603988	-0.01787143656834821	-0.6018525390507827	0.6741749547880125	-2.417876266535208	-2.417876266535094	-0.4015860223022557	0.06899876811186094	-0.5799582881605846	-0.245397296740609	-0.1260664867687214	0.02199077949768904	0.001582147043646094	-0.1213664669420949	-0.0299424610634584	0.01986575441529191	0.1180375832268204	-31.04738505803898	-5.43967192161676	3.154146809850936	-5.595321201016509	-409.5908121688787	-64.25499530632466	-11.34480435155207	0.4441718485729813	0.6356294416069398	-1.179128239704713	-0.5875755030688588	0.3247618142783335	-0.4513019184821521	1.522753704726342	-0.4613426920939867	-0.4613426920939577	0.05911363313885094	0.47816519968476	-0.3331097448770986	0.5576472437574438	6.811276899453033e-07	7.289814899522099e-07	-9.47307023611571e-06	-3.870876279994361e-07	2.205633818820403e-06	3.135172145158609e-06	1.083880030171369e-06
1.55	-0.3618719210001592	0.05365522529292555	0.7993013582956732	0.9900925273053104	-0.3564687184481695	-0.06277668818719336	-0.3064192033217433	0.7644606532219527	0.7644606532220789	-0.04162144829296417	-0.1678856969731869	0.2509094329274231	0.1476712619666639	0.6305793471578881	0.3219620743372399	0.5311029465101201	-2.661865891273147	-0.01538238916554516	-0.6051144923026066	0.6886923602708549	-2.421846281332879	-2.421846281332798	-0.4031436096330061	0.07365662905835878	-0.583231694704696	-0.2408335347240217	-0.1203248507313288	0.02009223244478183	0.002941800425177952	-0.120114175170467	-0.02773984019051337	0.01828969204439948	0.1134346396842239	-30.29940107585001	-4.906281135286172	3.092096077327267	-5.748747153848642	-406.3097593487654	-63.94083490035361	-12.32729152319334	0.3980474482055708	0.6104657113277743	-1.23631391083655	-0.4484548586844207	0.2072277474391694	-0.2269893885842147	1.394308535248689	-0.3170672132440621	-0.3170672132491266	-0.2838402668750222	0.4767269353948326	-0.3080297126037684	0.4044220982589158	6.043647407221336e-07	2.762871136733321e-06	-7.950711204514552e-06	-4.003685840058731e-08	1.980635171350931e-06	3.789210065067734e-06	1.104386280872165e-06
1.56	-0.3555482549895709	0.05690481155959289	0.8045494634758293	0.9634564209645649	-0.3566106982757623	-0.0688379942770119	-0.2994633469307472	0.7402302935062304	0.7402302935061997	-0.04566410250225108	-0.1671230282010495	0.2450634914886075	0.1452855334285858	0.6340135034434726	0.3279060664957634	0.5184119125985175	-2.664991377336155	-0.01304327999652004	-0.6069103399564489	0.7023327483611101	-2.423905749716155	-2.423905749716107	-0.4055270109914155	0.07899970573534211	-0.5858480453858244	-0.2363225160014353	-0.1145832146938368	0.01819368539225314	0.004301453803876379	-0.1188618833987174	-0.02553721931742179	0.01671362967407163	0.1088316961416309	-29.54134297557266	-4.376538697099639	3.032785446948696	-5.960990178031722	-402.9039970589317	-63.74221679856156	-13.30203957041456	0.2761559611296223	0.5769388682444729	-1.303571529393023	-0.1501039818383222	0.2947741675230274	-0.158080798885654	1.34735022620911	-0.07923340921492614	-0.07923340921492457	-0.1060491723929794	0.6152083457819183	-0.2016985722807153	0.5470985849571879	4.211134571325546e-07	4.716795829862621e-06	-5.002878343309057e-06	3.555153150167453e-07	1.415383076020182e-06	3.747041669574827e-06	9.702325596716536e-07
1.57	-0.349194449292013	0.0602115966050213	0.8096674850137906	0.9368020605602936	-0.3567270339578845	-0.07492174160054393	-0.2923745321420115	0.7159904598593683	0.7159904598592096	-0.04972145587733565	-0.1663092536899522	0.239195129163628	0.1429488472260614	0.6366813767262286	0.3333302424281497	0.5050937707382702	-2.665460406801461	-0.01022686435586408	-0.6096567627217698	0.71529504006379	-2.423669685987558	-2.423669685987508	-0.4059919323544142	0.08380791351073535	-0.5877641723234622	-0.2310160153924705	-0.1113161859953465	0.01837327817749457	0.00553055585770271	-0.1131282886533812	-0.03020797913311756	0.01484530509403472	0.1057612280661399	-31.05843789582432	-3.529839971263091	3.160910272032331	-4.053459797342223	-399.8334447368223	-62.46149588357516	-14.269448576267	0.2521905475342888	0.5072667992568813	-1.360758255371548	0.06775498360999342	0.2734175873623336	-0.3052868628908227	1.250393244270722	0.1336294749222398	0.1336294749224068	-0.02265424146247221	0.4220614508006186	-0.1772220351849341	0.5207351905297593	1.047517555849652e-07	6.570764330927159e-06	-2.732031950981627e-07	8.116942432071817e-07	4.248141708628414e-07	2.834615379829387e-06	6.427538735945094e-07
1.58	-0.3428159473544709	0.06356904537847813	0.8146493605849437	0.9101556213438621	-0.3568155370185755	-0.08102742592128132	-0.2851601495158551	0.6917647074918827	0.6917647074918677	-0.05378464659002773	-0.1654457102099351	0.2333094751131344	0.1406648879079614	0.6389527514364027	0.3380388121014488	0.491182719236874	-2.663407139767283	-0.007476755714143215	-0.6112977393885366	0.7274463158453928	-2.421089493817948	-2.421089493817896	-0.4066944786457928	0.08895349958144265	-0.5893063904882828	-0.2257771391169613	-0.1080491572971033	0.01855287096248402	0.006759657913840649	-0.1073946939081119	-0.03487873894887776	0.01297698051363434	0.1026907599904609	-32.56997250700901	-2.685711785506075	3.291268790257195	-2.174665920551524	-396.7272714993222	-61.17649708564491	-15.23051922716171	0.1968562466136544	0.4338176164267409	-1.422153457622858	0.3543553180588421	0.281512767735902	0.06300842082529129	1.18514704199395	0.3895922789877421	0.3895922789877522	-0.1535741580689338	0.6826840048448785	-0.1269168177175834	0.533573718266016	-4.727940676790877e-08	7.831774136074578e-06	1.950711976580085e-06	1.077290926797789e-06	-4.675925667151056e-08	2.563780825657213e-06	5.251432212545061e-07
